<svg xmlns="http://www.w3.org/2000/svg" xmlns:ev="http://www.w3.org/2001/xml-events" xmlns:xlink="http://www.w3.org/1999/xlink" width="793.701" height="415.748" class="st35" color-interpolation-filters="sRGB" viewBox="0 0 595.276 311.811" xml:space="preserve"><style type="text/css">.st1{fill:none}.st2{stroke:#0070c0;stroke-linecap:round;stroke-linejoin:round;stroke-width:1}.st3,.st4{stroke:#c05046}.st3{marker-end:url(#mrkr4-10);stroke-linecap:round;stroke-linejoin:round;stroke-width:2}.st4{fill:#c05046;fill-opacity:1;stroke-opacity:1;stroke-width:.44247787610619}.st5{fill:#fff;stroke:none;stroke-linecap:butt;stroke-width:7.2}.st6{fill:#000;font-family:Times New Roman;font-size:.833336em}.st7{font-size:1em;font-weight:700}.st8,.st9{stroke:#090}.st8{marker-end:url(#mrkr4-19);stroke-linecap:round;stroke-linejoin:round;stroke-width:2}.st9{fill:#090;fill-opacity:1;stroke-opacity:1;stroke-width:.44247787610619}.st10,.st11,.st12{stroke:#000;stroke-linecap:round;stroke-linejoin:round}.st10{fill:#fff;stroke-width:.24}.st11{stroke-width:.25}.st12{fill:#fff;stroke-width:.5}.st13{fill:#000;font-family:Times New Roman;font-size:.499992em}.st14{font-size:1em}.st15,.st16{stroke:#c05046}.st15{marker-end:url(#mrkr4-56);stroke-linecap:round;stroke-linejoin:round;stroke-width:.5}.st16{fill:#c05046;fill-opacity:1;stroke-opacity:1;stroke-width:.21739130434783}.st17,.st18,.st19{stroke-linecap:round;stroke-linejoin:round}.st17{stroke:#000;stroke-dasharray:1.75,1.25;stroke-width:.25}.st18,.st19{fill:none;stroke:none;stroke-width:.75}.st19{stroke:#000;stroke-dasharray:1.68,1.2;stroke-width:.24}.st20{fill:#000;font-family:Times New Roman;font-size:.75em}.st21{marker-end:url(#mrkr4-85);stroke:#090;stroke-linecap:round;stroke-linejoin:round;stroke-width:.5}.st22{fill:#090;fill-opacity:1;stroke:#090;stroke-opacity:1;stroke-width:.21739130434783}.st23{marker-end:url(#mrkr4-100);stroke:#000;stroke-linecap:round;stroke-linejoin:round;stroke-width:5}.st24{fill:#000;fill-opacity:1;stroke:#000;stroke-opacity:1;stroke-width:.60679611650485}.st25{fill:none;stroke:#f59d56;stroke-linecap:round;stroke-linejoin:round;stroke-width:1.25}.st26{fill:#0070c0;font-family:Calibri;font-size:1.00001em;font-weight:700}.st27,.st28{fill:#f59d56;font-size:.916665em}.st28{font-size:.83333em;font-weight:400}.st29{fill:none;stroke:#0070c0;stroke-linecap:round;stroke-linejoin:round;stroke-width:1.25}.st30{fill:#0070c0;font-family:Calibri;font-size:.833336em;font-weight:700}.st31{font-size:1em;font-weight:400}.st32{fill:#f59d56;font-family:Calibri;font-size:.833336em;font-weight:700}.st33{fill:#fff;stroke:#f59d56;stroke-linecap:round;stroke-linejoin:round;stroke-width:1.25}.st34{fill:#000;font-family:Times New Roman;font-size:.916672em;font-weight:700}.st35{fill:none;fill-rule:evenodd;font-size:12px;overflow:visible;stroke-linecap:square;stroke-miterlimit:3}</style><defs id="Markers"><g id="lend4"><path d="M 2 1 L 0 0 L 2 -1 L 2 1" style="stroke:none"/></g><marker id="mrkr4-10" class="st4" markerUnits="strokeWidth" orient="auto" overflow="visible" refX="-4.52"><use transform="scale(-2.26,-2.26)" xlink:href="#lend4"/></marker><marker id="mrkr4-19" class="st9" markerUnits="strokeWidth" orient="auto" overflow="visible" refX="-4.52"><use transform="scale(-2.26,-2.26)" xlink:href="#lend4"/></marker><marker id="mrkr4-56" class="st16" markerUnits="strokeWidth" orient="auto" overflow="visible" refX="-9.2"><use transform="scale(-4.6,-4.6)" xlink:href="#lend4"/></marker><marker id="mrkr4-85" class="st22" markerUnits="strokeWidth" orient="auto" overflow="visible" refX="-9.2"><use transform="scale(-4.6,-4.6)" xlink:href="#lend4"/></marker><marker id="mrkr4-100" class="st24" markerUnits="strokeWidth" orient="auto" overflow="visible" refX="-3.296"><use transform="scale(-1.648,-1.648)" xlink:href="#lend4"/></marker></defs><g><title>Page-1</title><g id="shape8-1" transform="translate(91.1136,-85.4038)"><title>Fluid contacting</title><desc>Absorber</desc><path d="M0 299.16 A25.7247 15.4132 -180 0 0 50.62 299.16 L50.62 162.8 A25.7247 15.4132 -180 0 0 0 162.8 L0 299.16 Z" class="st1"/><path d="M0 299.16 A25.7247 15.4132 -180 0 0 50.62 299.16 L50.62 162.8 A25.7247 15.4132 -180 0 0 0 162.8 L0 299.16" class="st2"/><path d="M0 188.87 L50.62 188.87 L0 272.77 L50.62 272.77 L0 188.87" class="st2"/></g><g id="shape16-5" transform="translate(56.126,-131.447)"><title>Major PipelineR</title><desc>Vapor/Gas IN</desc><path d="M0 318.82 L25.71 318.94" class="st3"/><rect width="56.934" height="12.052" x="-28.467" y="300.319" class="st5"/><text x="-28.47" y="309.36" class="st6">Vapor/Gas <tspan class="st7">IN</tspan></text></g><g id="shape245-14" transform="translate(177.449,-201.321)"><title>Major PipelineR.245</title><desc>Liquid IN</desc><path d="M0 304.79 L-26.68 304.69" class="st8"/><rect width="40.279" height="12.052" x="-27.509" y="288.271" class="st5"/><text x="-27.51" y="297.31" class="st6">Liquid <tspan class="st7">IN</tspan></text></g><g id="shape246-23" transform="translate(109.016,-247.654)"><title>Major PipelineR.246</title><desc>Vapor/Gas OUT</desc><path d="M7.09 311.81 L7.09 291.32" class="st3"/><rect width="67.49" height="12.052" x="-26.541" y="266.573" class="st5"/><text x="-26.54" y="275.61" class="st6">Vapor/Gas <tspan class="st7">OUT</tspan></text></g><g id="shape247-31" transform="translate(109.134,-84.7559)"><title>Major PipelineR.247</title><desc>Liquid OUT</desc><path d="M7.09 311.81 L7.09 332.69" class="st8"/><rect width="50.836" height="12.052" x="-17.764" y="342.636" class="st5"/><text x="-17.76" y="351.67" class="st6">Liquid <tspan class="st7">OUT</tspan></text></g><g id="shape249-39" transform="translate(91.721,-162.425)"><title>Rectangle</title><rect width="50.011" height="6.52" x="0" y="305.291" class="st10"/></g><g id="shape250-41" transform="translate(183.402,-195.874)"><title>Major PipelineR.250</title><path d="M0 311.81 L-41.67 339.02" class="st11"/></g><g id="shape251-44" transform="translate(181.134,-138.047)"><title>Major PipelineR.251</title><path d="M0 311.81 L-38.83 287.72" class="st11"/></g><g id="shape255-47" transform="translate(180.202,-153.739)"><title>Square</title><desc>Vapor Phase</desc><rect width="25.972" height="25.972" x="0" y="285.839" class="st12"/><text x="5.49" y="297.03" class="st13">Vapor<tspan x="5.99" class="st14" dy="1.2em">Phase</tspan></text></g><g id="shape257-51" transform="translate(186.074,-140.295)"><title>Major PipelineR.257</title><path d="M7.09 310.92 L7.09 303.13" class="st15"/></g><g id="shape261-57" transform="translate(234.162,-146.581)"><title>Major PipelineR.261</title><path d="M0 304.75 L-27.45 304.69" class="st17"/></g><g id="shape262-60" transform="translate(230.74,-186.874)"><title>Major PipelineR.262</title><path d="M0 318.83 L-23.85 318.97" class="st17"/></g><g id="shape263-63" transform="translate(211.222,-153.921)"><title>Major PipelineR.263</title><path d="M7.05 311.81 L7.13 286.3" class="st17"/></g><g id="shape264-66" transform="translate(195.292,-179.746)"><title>Sheet.264</title><desc>Interface</desc><rect width="47.541" height="9.071" x="0" y="302.74" class="st18"/><text x="13.11" y="309.08" class="st13">Interface</text></g><g id="shape265-69" transform="translate(176.598,-138.614)"><title>Rounded Rectangle</title><path d="M8.5 311.81 L76.54 311.81 A8.5038 8.5038 -180 0 0 85.04 303.31 L85.04 264.76 A8.5038 8.5038 -180 0 0 76.54 256.25 L8.5 256.25 A8.5038 8.5038 -180 0 0 0 264.76 L0 303.31 A8.5038 8.5038 -180 0 0 8.5 311.81 Z" class="st19"/></g><g id="shape266-71" transform="translate(157.12,-113.953)"><title>Sheet.266</title><desc>Simplified two-film model using Enhancement factor</desc><rect width="126.425" height="22.961" x="0" y="288.85" class="st18"/><text x="4.09" y="297.63" class="st20">Simplified two-film model using <tspan x="27.11" class="st14" dy="1.2em">Enhancement factor</tspan></text></g><g id="shape267-75" transform="translate(185.568,-179.271)"><title>Major PipelineR.267</title><path d="M7.09 310.92 L7.09 303.13" class="st15"/></g><g id="shape268-80" transform="translate(236.768,-192.946)"><title>Major PipelineR.268</title><path d="M7.09 312.7 L7.09 320.49" class="st21"/></g><g id="shape269-86" transform="translate(236.842,-154.156)"><title>Major PipelineR.269</title><path d="M7.09 312.7 L7.09 320.49" class="st21"/></g><g id="shape271-91" transform="translate(230.922,-153.638)"><title>Square.271</title><desc>Liquid Phase</desc><rect width="25.972" height="25.972" x="0" y="285.839" class="st12"/><text x="4.99" y="297.03" class="st13">Liquid<tspan x="5.99" class="st14" dy="1.2em">Phase</tspan></text></g><g id="shape272-95" transform="translate(272.008,-156.295)"><title>Major PipelineR.272</title><path d="M0 304.9 L33.24 304.66" class="st23"/></g><g id="shape273-101" transform="translate(327.979,-53.8868)"><title>Rounded Rectangle.273</title><desc>Packed Column Unit Model Performance Equations Hydrodynamics ...</desc><path d="M22.64 311.81 L203.72 311.81 A22.6348 22.6348 -180 0 0 226.35 289.18 L226.35 146.11 A22.6348 22.6348 -180 0 0 203.72 123.48 L22.64 123.48 A22.6348 22.6348 -180 0 0 0 146.11 L0 289.18 A22.6348 22.6348 -180 0 0 22.64 311.81 Z" class="st25"/><text x="45.25" y="142.64" class="st26">Packed Column Unit Model<tspan x="59.76" class="st27" dy="2.318em">Performance Equations</tspan><tspan x="81.67" class="st28" dy="1.23em">Hydrodynamics</tspan><tspan x="71.85" class="st28" dy="1.2em">Enhancement factor</tspan><tspan x="69.21" class="st28" dy="1.2em">Heat &amp; Mass Transfer</tspan></text></g><g id="shape274-108" transform="translate(337.657,-68.0106)"><title>Rounded Rectangle.274</title><desc>Vapor Phase-CV 1D Material Balance Energy Balance Momentum Ba...</desc><path d="M9.97 311.81 L89.7 311.81 A9.96609 9.96609 -180 0 0 99.66 301.84 L99.66 238.85 A9.96609 9.96609 -180 0 0 89.7 228.89 L9.97 228.89 A9.96609 9.96609 -180 0 0 -0 238.85 L0 301.84 A9.96609 9.96609 -180 0 0 9.97 311.81 Z" class="st29"/><text x="9.85" y="243.35" class="st30">Vapor Phase-CV 1D<tspan x="15.55" class="st31" dy="3.6em">Material Balance</tspan><tspan x="18.9" class="st31" dy="1.2em">Energy Balance</tspan><tspan x="8.5" class="st31" dy="1.2em">Momentum Balance</tspan></text></g><g id="shape275-114" transform="translate(446.538,-69.8252)"><title>Rounded Rectangle.275</title><desc>Liquid Phase-CV 1D Material Balance Energy Balance</desc><path d="M9.97 311.81 L89.7 311.81 A9.96609 9.96609 -180 0 0 99.66 301.84 L99.66 238.85 A9.96609 9.96609 -180 0 0 89.7 228.89 L9.97 228.89 A9.96609 9.96609 -180 0 0 -0 238.85 L0 301.84 A9.96609 9.96609 -180 0 0 9.97 311.81 Z" class="st29"/><text x="9.81" y="243.35" class="st30">Liquid Phase-CV 1D<tspan x="15.55" class="st31" dy="4.8em">Material Balance</tspan><tspan x="18.9" class="st31" dy="1.2em">Energy Balance</tspan></text></g><g id="shape276-119" transform="translate(343.706,-110.353)"><title>Rounded Rectangle.276</title><desc>Property Models</desc><path d="M8.42 311.81 L75.78 311.81 A8.42001 8.42001 -180 0 0 84.2 303.39 L84.2 298.7 A8.42001 8.42001 -180 0 0 75.78 290.28 L8.42 290.28 A8.42001 8.42001 -180 0 0 0 298.7 L0 303.39 A8.42001 8.42001 -180 0 0 8.42 311.81 Z" class="st25"/><text x="7.28" y="304.04" class="st32">Property Models</text></g><g id="shape277-122" transform="translate(453.797,-109.143)"><title>Rounded Rectangle.277</title><desc>Property Models</desc><path d="M8.42 311.81 L75.78 311.81 A8.42001 8.42001 -180 0 0 84.2 303.39 L84.2 298.7 A8.42001 8.42001 -180 0 0 75.78 290.28 L8.42 290.28 A8.42001 8.42001 -180 0 0 0 298.7 L0 303.39 A8.42001 8.42001 -180 0 0 8.42 311.81 Z" class="st25"/><text x="7.28" y="304.04" class="st32">Property Models</text></g><g id="shape279-125" transform="translate(533.038,-200.483)"><title>Rounded Rectangle.279</title><desc>Outlets</desc><path d="M3.96 311.81 L35.6 311.81 A3.95595 3.95595 -180 0 0 39.56 307.86 L39.56 294.23 A3.95595 3.95595 -180 0 0 35.6 290.28 L3.96 290.28 A3.95595 3.95595 -180 0 0 0 294.23 L0 307.86 A3.95595 3.95595 -180 0 0 3.96 311.81 Z" class="st33"/><text x="4.51" y="304.04" class="st32">Outlets</text></g><g id="shape280-128" transform="translate(308.622,-199.273)"><title>Rounded Rectangle.280</title><desc>Inlets</desc><path d="M3.96 311.81 L35.6 311.81 A3.95595 3.95595 -180 0 0 39.56 307.86 L39.56 294.23 A3.95595 3.95595 -180 0 0 35.6 290.28 L3.96 290.28 A3.95595 3.95595 -180 0 0 0 294.23 L0 307.86 A3.95595 3.95595 -180 0 0 3.96 311.81 Z" class="st33"/><text x="8.29" y="304.04" class="st32">Inlets</text></g><g id="shape281-131" transform="translate(50.9322,-14.3287)"><title>Sheet.281</title><desc>(A) Packed Column</desc><rect width="126.425" height="22.961" x="0" y="288.85" class="st18"/><text x="16.77" y="303.63" class="st34">(A) Packed Column</text></g><g id="shape311-134" transform="translate(362.126,-14.1732)"><title>Sheet.311</title><desc>(B) Model Structure</desc><rect width="126.425" height="22.961" x="0" y="288.85" class="st18"/><text x="12.81" y="303.63" class="st34">(B) Model Structure</text></g></g></svg>