<svg xmlns="http://www.w3.org/2000/svg" xmlns:svg="http://www.w3.org/2000/svg" xmlns:xlink="http://www.w3.org/1999/xlink" id="svg981" width="439.615" height="192.156" preserveAspectRatio="xMidYMid meet" version="1.1" viewBox="0 0 255.776 111.8"><metadata id="metadata985"/><defs id="defs955"><path id="c2dfFriK"/><path id="c1prtneW1m"/><path id="a1H51JVonM" d="m 218.54,242.97 c -2.58,-8.86 -3.91,-18.05 -3.97,-27.59 -1.36,-6.22 -0.75,-13.55 1.84,-22 1.77,-5.79 4.72,-12.42 8.85,-19.91 2.99,-5.4 8.67,-8.76 14.84,-8.76 41.31,0 155.27,0 196.58,0 6.17,0 11.86,3.35 14.85,8.75 3.26,5.87 5.68,11.55 7.27,17.03 2.45,8.44 3.32,16.74 2.59,24.89 0.73,9.2 -0.14,18.22 -2.59,27.08 -1.6,5.77 -4.01,11.54 -7.24,17.32 -3.01,5.39 -8.7,8.73 -14.88,8.73 -41.31,0 -155.27,0 -196.58,0 -6.16,0 -11.81,-3.39 -14.71,-8.83 -2.9,-5.45 -5.18,-11.02 -6.85,-16.71 z"/></defs><g id="g979" transform="translate(-209.86323,-160.71)"><g id="g977"><g id="g961"><g id="g959"><use id="use957" width="100%" height="100%" x="0" y="0" xlink:href="#c2dfFriK" style="opacity:1;fill-opacity:0;stroke:#050502;stroke-width:1;stroke-opacity:1"/></g></g><g id="g967"><g id="g965"><use id="use963" width="100%" height="100%" x="0" y="0" xlink:href="#c1prtneW1m" style="opacity:1;fill-opacity:0;stroke:#050502;stroke-width:1;stroke-opacity:1"/></g></g><g id="g975"><use id="use969" width="100%" height="100%" x="0" y="0" xlink:href="#a1H51JVonM" style="opacity:1;fill:#fff;fill-opacity:0"/><g id="g973"><use id="use971" width="100%" height="100%" x="0" y="0" xlink:href="#a1H51JVonM" style="opacity:1;fill-opacity:0;stroke:#000;stroke-width:8;stroke-opacity:1"/></g></g></g></g></svg>