<svg xmlns="http://www.w3.org/2000/svg" xmlns:svg="http://www.w3.org/2000/svg" id="svg2" width="183.738" height="107.681" version="1.1" viewBox="0 0 172.255 100.95"><defs id="defs4"><marker style="overflow:visible" id="marker15184" orient="auto" refX="0" refY="0"><path transform="matrix(-0.4,0,0,-0.4,-4,0)" style="fill:#000;fill-opacity:1;fill-rule:evenodd;stroke:#000;stroke-width:1pt;stroke-opacity:1" id="path15186" d="M 0,0 5,-5 -12.5,0 5,5 0,0 Z"/></marker><marker style="overflow:visible" id="marker13040" orient="auto" refX="0" refY="0"><path transform="matrix(-0.4,0,0,-0.4,-4,0)" style="fill:#000;fill-opacity:1;fill-rule:evenodd;stroke:#000;stroke-width:1pt;stroke-opacity:1" id="path13042" d="M 0,0 5,-5 -12.5,0 5,5 0,0 Z"/></marker><marker style="overflow:visible" id="marker4956" orient="auto" refX="0" refY="0"><path transform="matrix(-0.4,0,0,-0.4,-4,0)" style="fill:#000;fill-opacity:1;fill-rule:evenodd;stroke:#000;stroke-width:1pt;stroke-opacity:1" id="path4958" d="M 0,0 5,-5 -12.5,0 5,5 0,0 Z"/></marker><marker id="marker4778" orient="auto" refX="0" refY="0" style="overflow:visible"><path id="path4780" d="M 0,0 5,-5 -12.5,0 5,5 0,0 Z" style="fill:#000;fill-opacity:1;fill-rule:evenodd;stroke:#000;stroke-width:1pt;stroke-opacity:1" transform="matrix(-0.4,0,0,-0.4,-4,0)"/></marker><marker style="overflow:visible" id="marker22911" orient="auto" refX="0" refY="0"><path id="path22913" d="M 8.7185878,4.0337352 -2.2072895,0.01601326 8.7185884,-4.0017078 c -1.7454984,2.3720609 -1.7354408,5.6174519 -6e-7,8.035443 z" transform="scale(-0.6,-0.6)" style="fill:#000;fill-opacity:1;fill-rule:evenodd;stroke:#000;stroke-width:.625;stroke-linejoin:round;stroke-opacity:1"/></marker><marker style="overflow:visible" id="marker22697" orient="auto" refX="0" refY="0"><path id="path22699" d="M 8.7185878,4.0337352 -2.2072895,0.01601326 8.7185884,-4.0017078 c -1.7454984,2.3720609 -1.7354408,5.6174519 -6e-7,8.035443 z" transform="scale(-0.6,-0.6)" style="fill:#000;fill-opacity:1;fill-rule:evenodd;stroke:#000;stroke-width:.625;stroke-linejoin:round;stroke-opacity:1"/></marker><marker style="overflow:visible" id="marker22489" orient="auto" refX="0" refY="0"><path id="path22491" d="M 8.7185878,4.0337352 -2.2072895,0.01601326 8.7185884,-4.0017078 c -1.7454984,2.3720609 -1.7354408,5.6174519 -6e-7,8.035443 z" transform="scale(-0.6,-0.6)" style="fill:#000;fill-opacity:1;fill-rule:evenodd;stroke:#000;stroke-width:.625;stroke-linejoin:round;stroke-opacity:1"/></marker><marker style="overflow:visible" id="marker22287" orient="auto" refX="0" refY="0"><path id="path22289" d="M 8.7185878,4.0337352 -2.2072895,0.01601326 8.7185884,-4.0017078 c -1.7454984,2.3720609 -1.7354408,5.6174519 -6e-7,8.035443 z" transform="scale(-0.6,-0.6)" style="fill:#000;fill-opacity:1;fill-rule:evenodd;stroke:#000;stroke-width:.625;stroke-linejoin:round;stroke-opacity:1"/></marker><marker id="Arrow2Lend" orient="auto" refX="0" refY="0" style="overflow:visible"><path id="path4321" style="fill:#000;fill-opacity:1;fill-rule:evenodd;stroke:#000;stroke-width:.625;stroke-linejoin:round;stroke-opacity:1" d="M 8.7185878,4.0337352 -2.2072895,0.01601326 8.7185884,-4.0017078 c -1.7454984,2.3720609 -1.7354408,5.6174519 -6e-7,8.035443 z" transform="matrix(-1.1,0,0,-1.1,-1.1,0)"/></marker><marker id="Arrow2Mend-3" orient="auto" refX="0" refY="0" style="overflow:visible"><path id="path4327-3" style="fill:#000;fill-opacity:1;fill-rule:evenodd;stroke:#000;stroke-width:.625;stroke-linejoin:round;stroke-opacity:1" d="M 8.7185878,4.0337352 -2.2072895,0.01601326 8.7185884,-4.0017078 c -1.7454984,2.3720609 -1.7354408,5.6174519 -6e-7,8.035443 z" transform="scale(-0.6,-0.6)"/></marker><marker id="Arrow2Mend-6" orient="auto" refX="0" refY="0" style="overflow:visible"><path id="path4327-9" style="fill:#000;fill-opacity:1;fill-rule:evenodd;stroke:#000;stroke-width:.625;stroke-linejoin:round;stroke-opacity:1" d="M 8.7185878,4.0337352 -2.2072895,0.01601326 8.7185884,-4.0017078 c -1.7454984,2.3720609 -1.7354408,5.6174519 -6e-7,8.035443 z" transform="scale(-0.6,-0.6)"/></marker><marker id="Arrow2Mend-6-5" orient="auto" refX="0" refY="0" style="overflow:visible"><path id="path4327-9-3" style="fill:#000;fill-opacity:1;fill-rule:evenodd;stroke:#000;stroke-width:.625;stroke-linejoin:round;stroke-opacity:1" d="M 8.7185878,4.0337352 -2.2072895,0.01601326 8.7185884,-4.0017078 c -1.7454984,2.3720609 -1.7354408,5.6174519 -6e-7,8.035443 z" transform="scale(-0.6,-0.6)"/></marker><marker id="Arrow2Mend-6-56" orient="auto" refX="0" refY="0" style="overflow:visible"><path id="path4327-9-8" style="fill:#000;fill-opacity:1;fill-rule:evenodd;stroke:#000;stroke-width:.625;stroke-linejoin:round;stroke-opacity:1" d="M 8.7185878,4.0337352 -2.2072895,0.01601326 8.7185884,-4.0017078 c -1.7454984,2.3720609 -1.7354408,5.6174519 -6e-7,8.035443 z" transform="scale(-0.6,-0.6)"/></marker><marker id="Arrow2Mend-6-0" orient="auto" refX="0" refY="0" style="overflow:visible"><path id="path4327-9-7" style="fill:#000;fill-opacity:1;fill-rule:evenodd;stroke:#000;stroke-width:.625;stroke-linejoin:round;stroke-opacity:1" d="M 8.7185878,4.0337352 -2.2072895,0.01601326 8.7185884,-4.0017078 c -1.7454984,2.3720609 -1.7354408,5.6174519 -6e-7,8.035443 z" transform="scale(-0.6,-0.6)"/></marker><marker id="Arrow2Mend-6-8" orient="auto" refX="0" refY="0" style="overflow:visible"><path id="path4327-9-6" style="fill:#000;fill-opacity:1;fill-rule:evenodd;stroke:#000;stroke-width:.625;stroke-linejoin:round;stroke-opacity:1" d="M 8.7185878,4.0337352 -2.2072895,0.01601326 8.7185884,-4.0017078 c -1.7454984,2.3720609 -1.7354408,5.6174519 -6e-7,8.035443 z" transform="scale(-0.6,-0.6)"/></marker><marker id="Arrow2Mend-6-7" orient="auto" refX="0" refY="0" style="overflow:visible"><path id="path4327-9-5" style="fill:#000;fill-opacity:1;fill-rule:evenodd;stroke:#000;stroke-width:.625;stroke-linejoin:round;stroke-opacity:1" d="M 8.7185878,4.0337352 -2.2072895,0.01601326 8.7185884,-4.0017078 c -1.7454984,2.3720609 -1.7354408,5.6174519 -6e-7,8.035443 z" transform="scale(-0.6,-0.6)"/></marker><marker id="Arrow2Mend-6-7-5" orient="auto" refX="0" refY="0" style="overflow:visible"><path id="path4327-9-5-6" style="fill:#000;fill-opacity:1;fill-rule:evenodd;stroke:#000;stroke-width:.625;stroke-linejoin:round;stroke-opacity:1" d="M 8.7185878,4.0337352 -2.2072895,0.01601326 8.7185884,-4.0017078 c -1.7454984,2.3720609 -1.7354408,5.6174519 -6e-7,8.035443 z" transform="scale(-0.6,-0.6)"/></marker><marker id="Arrow2Mend-6-7-3" orient="auto" refX="0" refY="0" style="overflow:visible"><path id="path4327-9-5-9" style="fill:#000;fill-opacity:1;fill-rule:evenodd;stroke:#000;stroke-width:.625;stroke-linejoin:round;stroke-opacity:1" d="M 8.7185878,4.0337352 -2.2072895,0.01601326 8.7185884,-4.0017078 c -1.7454984,2.3720609 -1.7354408,5.6174519 -6e-7,8.035443 z" transform="scale(-0.6,-0.6)"/></marker><marker id="Arrow2Mend-6-7-6" orient="auto" refX="0" refY="0" style="overflow:visible"><path id="path4327-9-5-2" style="fill:#000;fill-opacity:1;fill-rule:evenodd;stroke:#000;stroke-width:.625;stroke-linejoin:round;stroke-opacity:1" d="M 8.7185878,4.0337352 -2.2072895,0.01601326 8.7185884,-4.0017078 c -1.7454984,2.3720609 -1.7354408,5.6174519 -6e-7,8.035443 z" transform="scale(-0.6,-0.6)"/></marker><marker id="Arrow2Mend-6-7-4" orient="auto" refX="0" refY="0" style="overflow:visible"><path id="path4327-9-5-3" style="fill:#000;fill-opacity:1;fill-rule:evenodd;stroke:#000;stroke-width:.625;stroke-linejoin:round;stroke-opacity:1" d="M 8.7185878,4.0337352 -2.2072895,0.01601326 8.7185884,-4.0017078 c -1.7454984,2.3720609 -1.7354408,5.6174519 -6e-7,8.035443 z" transform="scale(-0.6,-0.6)"/></marker><marker id="Arrow2Mend-6-7-0" orient="auto" refX="0" refY="0" style="overflow:visible"><path id="path4327-9-5-0" style="fill:#000;fill-opacity:1;fill-rule:evenodd;stroke:#000;stroke-width:.625;stroke-linejoin:round;stroke-opacity:1" d="M 8.7185878,4.0337352 -2.2072895,0.01601326 8.7185884,-4.0017078 c -1.7454984,2.3720609 -1.7354408,5.6174519 -6e-7,8.035443 z" transform="scale(-0.6,-0.6)"/></marker><marker id="Arrow2Mend-6-7-7" orient="auto" refX="0" refY="0" style="overflow:visible"><path id="path4327-9-5-8" style="fill:#000;fill-opacity:1;fill-rule:evenodd;stroke:#000;stroke-width:.625;stroke-linejoin:round;stroke-opacity:1" d="M 8.7185878,4.0337352 -2.2072895,0.01601326 8.7185884,-4.0017078 c -1.7454984,2.3720609 -1.7354408,5.6174519 -6e-7,8.035443 z" transform="scale(-0.6,-0.6)"/></marker><marker id="Arrow2Mend-6-7-74" orient="auto" refX="0" refY="0" style="overflow:visible"><path id="path4327-9-5-1" style="fill:#000;fill-opacity:1;fill-rule:evenodd;stroke:#000;stroke-width:.625;stroke-linejoin:round;stroke-opacity:1" d="M 8.7185878,4.0337352 -2.2072895,0.01601326 8.7185884,-4.0017078 c -1.7454984,2.3720609 -1.7354408,5.6174519 -6e-7,8.035443 z" transform="scale(-0.6,-0.6)"/></marker><marker id="Arrow2Mend-6-7-9" orient="auto" refX="0" refY="0" style="overflow:visible"><path id="path4327-9-5-89" style="fill:#000;fill-opacity:1;fill-rule:evenodd;stroke:#000;stroke-width:.625;stroke-linejoin:round;stroke-opacity:1" d="M 8.7185878,4.0337352 -2.2072895,0.01601326 8.7185884,-4.0017078 c -1.7454984,2.3720609 -1.7354408,5.6174519 -6e-7,8.035443 z" transform="scale(-0.6,-0.6)"/></marker><marker id="Arrow2Mend-6-7-747" orient="auto" refX="0" refY="0" style="overflow:visible"><path id="path4327-9-5-61" style="fill:#000;fill-opacity:1;fill-rule:evenodd;stroke:#000;stroke-width:.625;stroke-linejoin:round;stroke-opacity:1" d="M 8.7185878,4.0337352 -2.2072895,0.01601326 8.7185884,-4.0017078 c -1.7454984,2.3720609 -1.7354408,5.6174519 -6e-7,8.035443 z" transform="scale(-0.6,-0.6)"/></marker><marker id="Arrow2Mend-6-7-64" orient="auto" refX="0" refY="0" style="overflow:visible"><path id="path4327-9-5-29" style="fill:#000;fill-opacity:1;fill-rule:evenodd;stroke:#000;stroke-width:.625;stroke-linejoin:round;stroke-opacity:1" d="M 8.7185878,4.0337352 -2.2072895,0.01601326 8.7185884,-4.0017078 c -1.7454984,2.3720609 -1.7354408,5.6174519 -6e-7,8.035443 z" transform="scale(-0.6,-0.6)"/></marker><marker id="Arrow2Mend-6-7-60" orient="auto" refX="0" refY="0" style="overflow:visible"><path id="path4327-9-5-69" style="fill:#000;fill-opacity:1;fill-rule:evenodd;stroke:#000;stroke-width:.625;stroke-linejoin:round;stroke-opacity:1" d="M 8.7185878,4.0337352 -2.2072895,0.01601326 8.7185884,-4.0017078 c -1.7454984,2.3720609 -1.7354408,5.6174519 -6e-7,8.035443 z" transform="scale(-0.6,-0.6)"/></marker><marker id="Arrow2Mend-6-7-1" orient="auto" refX="0" refY="0" style="overflow:visible"><path id="path4327-9-5-08" style="fill:#000;fill-opacity:1;fill-rule:evenodd;stroke:#000;stroke-width:.625;stroke-linejoin:round;stroke-opacity:1" d="M 8.7185878,4.0337352 -2.2072895,0.01601326 8.7185884,-4.0017078 c -1.7454984,2.3720609 -1.7354408,5.6174519 -6e-7,8.035443 z" transform="scale(-0.6,-0.6)"/></marker><marker style="overflow:visible" id="marker15810-5" orient="auto" refX="0" refY="0"><path id="path15812-6" d="M 8.7185878,4.0337352 -2.2072895,0.01601326 8.7185884,-4.0017078 c -1.7454984,2.3720609 -1.7354408,5.6174519 -6e-7,8.035443 z" transform="scale(-0.6,-0.6)" style="fill:#000;fill-opacity:1;fill-rule:evenodd;stroke:#000;stroke-width:.625;stroke-linejoin:round;stroke-opacity:1"/></marker><marker style="overflow:visible" id="marker15810-4" orient="auto" refX="0" refY="0"><path id="path15812-9" d="M 8.7185878,4.0337352 -2.2072895,0.01601326 8.7185884,-4.0017078 c -1.7454984,2.3720609 -1.7354408,5.6174519 -6e-7,8.035443 z" transform="scale(-0.6,-0.6)" style="fill:#000;fill-opacity:1;fill-rule:evenodd;stroke:#000;stroke-width:.625;stroke-linejoin:round;stroke-opacity:1"/></marker><marker id="marker17711-4" orient="auto" refX="0" refY="0" style="overflow:visible"><path id="path17713-9" style="fill:#000;fill-opacity:1;fill-rule:evenodd;stroke:#000;stroke-width:.625;stroke-linejoin:round;stroke-opacity:1" d="M 8.7185878,4.0337352 -2.2072895,0.01601326 8.7185884,-4.0017078 c -1.7454984,2.3720609 -1.7354408,5.6174519 -6e-7,8.035443 z" transform="scale(-0.6,-0.6)"/></marker><marker id="Arrow2Mend-61" orient="auto" refX="0" refY="0" style="overflow:visible"><path id="path4327-0" style="fill:#000;fill-opacity:1;fill-rule:evenodd;stroke:#000;stroke-width:.625;stroke-linejoin:round;stroke-opacity:1" d="M 8.7185878,4.0337352 -2.2072895,0.01601326 8.7185884,-4.0017078 c -1.7454984,2.3720609 -1.7354408,5.6174519 -6e-7,8.035443 z" transform="scale(-0.6,-0.6)"/></marker><marker id="Arrow2Mend-8" orient="auto" refX="0" refY="0" style="overflow:visible"><path id="path4327-6" style="fill:#000;fill-opacity:1;fill-rule:evenodd;stroke:#000;stroke-width:.625;stroke-linejoin:round;stroke-opacity:1" d="M 8.7185878,4.0337352 -2.2072895,0.01601326 8.7185884,-4.0017078 c -1.7454984,2.3720609 -1.7354408,5.6174519 -6e-7,8.035443 z" transform="scale(-0.6,-0.6)"/></marker><marker id="marker20811-4" orient="auto" refX="0" refY="0" style="overflow:visible"><path id="path20813-9" style="fill:#000;fill-opacity:1;fill-rule:evenodd;stroke:#000;stroke-width:.625;stroke-linejoin:round;stroke-opacity:1" d="M 8.7185878,4.0337352 -2.2072895,0.01601326 8.7185884,-4.0017078 c -1.7454984,2.3720609 -1.7354408,5.6174519 -6e-7,8.035443 z" transform="scale(-0.6,-0.6)"/></marker><marker style="overflow:visible" id="marker22287-9" orient="auto" refX="0" refY="0"><path id="path22289-5" d="M 8.7185878,4.0337352 -2.2072895,0.01601326 8.7185884,-4.0017078 c -1.7454984,2.3720609 -1.7354408,5.6174519 -6e-7,8.035443 z" transform="scale(-0.6,-0.6)" style="fill:#000;fill-opacity:1;fill-rule:evenodd;stroke:#000;stroke-width:.625;stroke-linejoin:round;stroke-opacity:1"/></marker><marker style="overflow:visible" id="marker22287-0" orient="auto" refX="0" refY="0"><path id="path22289-0" d="M 8.7185878,4.0337352 -2.2072895,0.01601326 8.7185884,-4.0017078 c -1.7454984,2.3720609 -1.7354408,5.6174519 -6e-7,8.035443 z" transform="scale(-0.6,-0.6)" style="fill:#000;fill-opacity:1;fill-rule:evenodd;stroke:#000;stroke-width:.625;stroke-linejoin:round;stroke-opacity:1"/></marker><marker style="overflow:visible" id="marker4956-4" orient="auto" refX="0" refY="0"><path transform="matrix(-0.4,0,0,-0.4,-4,0)" style="fill:#000;fill-opacity:1;fill-rule:evenodd;stroke:#000;stroke-width:1pt;stroke-opacity:1" id="path4958-2" d="M 0,0 5,-5 -12.5,0 5,5 0,0 Z"/></marker></defs><metadata id="metadata7"/><g id="layer1" transform="translate(-673.17583,-486.67899)"><g id="g4262" transform="matrix(1.2349242,0,0,1.2349242,192.43748,2759.3305)"><path id="path4163" d="m 429.28571,-1839.0666 60,0 0,70 c -19.12473,11.3784 -38.97303,13.3505 -60,0 l 0,-70" style="fill:none;fill-rule:evenodd;stroke:#000;stroke-width:2.5;stroke-linecap:butt;stroke-linejoin:round;stroke-miterlimit:4;stroke-dasharray:none;stroke-opacity:1"/><path id="path4165" d="m 430,-1827.638 60,0 0,0" style="fill:none;fill-rule:evenodd;stroke:#000;stroke-width:1.5;stroke-linecap:butt;stroke-linejoin:miter;stroke-miterlimit:4;stroke-dasharray:none;stroke-opacity:1"/><path id="path4167" d="m 430,-1777.638 60,0" style="fill:none;fill-rule:evenodd;stroke:#000;stroke-width:1.5;stroke-linecap:butt;stroke-linejoin:miter;stroke-miterlimit:4;stroke-dasharray:none;stroke-opacity:1"/><path id="path4169" d="m 430,-1777.638 60,-50" style="fill:none;fill-rule:evenodd;stroke:#000;stroke-width:1.5;stroke-linecap:butt;stroke-linejoin:miter;stroke-miterlimit:4;stroke-dasharray:none;stroke-opacity:1"/><path id="path4171" d="m 430,-1827.638 60,50 0,0 0,0" style="fill:none;fill-rule:evenodd;stroke:#000;stroke-width:1.5;stroke-linecap:butt;stroke-linejoin:miter;stroke-miterlimit:4;stroke-dasharray:none;stroke-opacity:1"/></g><path style="fill:none;fill-rule:evenodd;stroke:#000;stroke-width:1.78868365;stroke-linecap:butt;stroke-linejoin:miter;stroke-miterlimit:4;stroke-dasharray:none;stroke-opacity:1;marker-end:url(#Arrow2Mend-61)" id="path4294-64" d="m 673.17583,498.80779 46.05791,0 0,0"/><path style="fill:none;fill-rule:evenodd;stroke:#000;stroke-width:1.78868365;stroke-linecap:butt;stroke-linejoin:miter;stroke-miterlimit:4;stroke-dasharray:none;stroke-opacity:1;marker-end:url(#Arrow2Mend-8)" id="path4294-2" d="m 796.66825,569.37494 46.05792,0 0,0"/><text xml:space="preserve" style="font-style:normal;font-weight:400;font-size:25.11846542px;line-height:125%;font-family:sans-serif;letter-spacing:0;word-spacing:0;fill:#000;fill-opacity:1;stroke:none;stroke-width:1px;stroke-linecap:butt;stroke-linejoin:miter;stroke-opacity:1" id="text20087" x="745.14" y="564.801" transform="scale(1.0085402,0.99153211)"><tspan id="tspan20089" x="745.14" y="564.801">S</tspan></text></g></svg>