<svg xmlns="http://www.w3.org/2000/svg" xmlns:svg="http://www.w3.org/2000/svg" id="svg2" width="110.705" height="30.789" version="1.1" viewBox="0 0 103.786 28.864"><defs id="defs4"><marker id="Arrow2Mend-6-7-0" orient="auto" refX="0" refY="0" style="overflow:visible"><path id="path4327-9-5-0" style="fill:#000;fill-opacity:1;fill-rule:evenodd;stroke:#000;stroke-width:.625;stroke-linejoin:round;stroke-opacity:1" d="M 8.7185878,4.0337352 -2.2072895,0.01601326 8.7185884,-4.0017078 c -1.7454984,2.3720609 -1.7354408,5.6174519 -6e-7,8.035443 z" transform="scale(-0.6)"/></marker><marker id="Arrow2Mend-6-7-7" orient="auto" refX="0" refY="0" style="overflow:visible"><path id="path4327-9-5-8" style="fill:#000;fill-opacity:1;fill-rule:evenodd;stroke:#000;stroke-width:.625;stroke-linejoin:round;stroke-opacity:1" d="M 8.7185878,4.0337352 -2.2072895,0.01601326 8.7185884,-4.0017078 c -1.7454984,2.3720609 -1.7354408,5.6174519 -6e-7,8.035443 z" transform="scale(-0.6)"/></marker></defs><metadata id="metadata7"/><g id="layer1" transform="translate(-205.62655,-821.12209)"><path style="fill:none;fill-rule:evenodd;stroke:#000;stroke-width:1.875;stroke-linecap:butt;stroke-linejoin:miter;stroke-miterlimit:4;stroke-dasharray:none;stroke-opacity:1;marker-end:url(#Arrow2Mend-6-7-0)" id="path4294-66-8-0" d="m 205.62655,843.02274 h 35.32582"/><path style="fill:none;fill-rule:evenodd;stroke:#000;stroke-width:1.875;stroke-linecap:butt;stroke-linejoin:miter;stroke-miterlimit:4;stroke-dasharray:none;stroke-opacity:1;marker-end:url(#Arrow2Mend-6-7-7)" id="path4294-66-8-7" d="m 271.25155,843.02274 h 35.32582"/><path style="fill:none;fill-rule:evenodd;stroke:#000;stroke-width:3.28125;stroke-linecap:butt;stroke-linejoin:miter;stroke-miterlimit:4;stroke-dasharray:none;stroke-opacity:1" id="path12310" d="m 243.12655,847.71024 v -9.375 l 28.125,9.375 v -9.375 z"/><path style="fill:none;fill-rule:evenodd;stroke:#000;stroke-width:.93749994px;stroke-linecap:butt;stroke-linejoin:miter;stroke-opacity:1" id="path13068" d="m 257.18905,843.02273 v -14.0625"/><path style="opacity:1;fill:none;fill-opacity:1;stroke:#000;stroke-width:.93749994;stroke-miterlimit:4;stroke-dasharray:none;stroke-dashoffset:0;stroke-opacity:1" id="path13103" d="m 247.81418,828.58869 a 9.375,7.03125 0 0 1 4.7532,-6.0808 9.375,7.03125 0 0 1 9.39788,0.0671 9.375,7.03125 0 0 1 4.5979,6.1476 l -9.3741,-0.0973 z"/></g></svg>